<svg xmlns="http://www.w3.org/2000/svg" width="24.21" height="24.605" viewBox="0 0 24.21 24.605"><defs><style>.a{fill:#6bbce9;}.b{fill:#10103a;}</style></defs><g transform="translate(0 0)"><path class="a" d="M48.37,96.229a.956.956,0,0,0,.176.542.977.977,0,0,0,.542.377,2.97,2.97,0,0,0,.294.059,1.234,1.234,0,0,0,.435-.118.882.882,0,0,0,.494-.612l.329-1.234a.91.91,0,0,0-.094-.742,1.025,1.025,0,0,0-.623-.47.927.927,0,0,0-.742.094,1.04,1.04,0,0,0-.481.625l-.318,1.175A2.744,2.744,0,0,1,48.37,96.229Z" transform="translate(-37.841 -73.534)"/><path class="a" d="M55.61,70.438a.942.942,0,0,0,.176.518,1,1,0,0,0,.529.387.927.927,0,0,0,.753-.059.964.964,0,0,0,.47-.609l.353-1.217a.953.953,0,0,0-.094-.742,1.073,1.073,0,0,0-.623-.481.96.96,0,0,0-.764.094,1.006,1.006,0,0,0-.483.612l-.283,1.188C55.623,70.329,55.61,70.427,55.61,70.438Z" transform="translate(-43.505 -53.351)"/><path class="a" d="M67.27,84.271a1.088,1.088,0,0,0,.189.6,1.032,1.032,0,0,0,.553.411,1.3,1.3,0,0,1,.139.024,1,1,0,0,0,.141.024.973.973,0,0,0,.442-.1.884.884,0,0,0,.481-.668l.294-1.188a1.014,1.014,0,0,0-.653-1.271,1.088,1.088,0,0,0-.8.1.886.886,0,0,0-.435.623l-.316,1.21A.829.829,0,0,0,67.27,84.271Z" transform="translate(-52.627 -64.207)"/><path class="a" d="M70.579,57.1a.871.871,0,0,0,.176.551,1.334,1.334,0,0,0,.568.438.653.653,0,0,0,.3.07.947.947,0,0,0,.919-.764l.34-1.21c.024-.155.037-.235.037-.259a1,1,0,0,0-.766-.964c-.022,0-.07-.013-.128-.024a.3.3,0,0,0-.152-.035,1.071,1.071,0,0,0-.577.176.912.912,0,0,0-.387.564l-.318,1.188A2.292,2.292,0,0,0,70.579,57.1Z" transform="translate(-55.215 -42.949)"/><path class="a" d="M29.07,53.964l-2.847,6.965a.3.3,0,0,0,.244.4l1.959.189a.3.3,0,0,1,.259.359L27.6,66.671h.174a.292.292,0,0,0,.246-.131l4.31-6.458a.3.3,0,0,0-.218-.457l-1.567-.163a.292.292,0,0,1-.222-.418L32.7,54.225a.294.294,0,0,0-.261-.435l-3.1-.02a.294.294,0,0,0-.274.194Z" transform="translate(-20.498 -42.066)"/><path class="b" d="M0,11.1a5.587,5.587,0,0,0,1.624,4.02,5.675,5.675,0,0,0,3.97,1.794.178.178,0,0,0,.2-.2V15.141a.178.178,0,0,0-.2-.2,3.594,3.594,0,0,1-2.547-1.2A3.75,3.75,0,0,1,1.994,11.1a3.657,3.657,0,0,1,.982-2.534,3.842,3.842,0,0,1,2.442-1.26l.618-.035c.152,0,.233-.07.233-.218l.07-.623a4.765,4.765,0,0,1,1.6-3.178A4.9,4.9,0,0,1,11.969,2.01a4.451,4.451,0,0,1,2.135.829,4.958,4.958,0,0,1,2.127,3.587l.091.681c0,.128.072.2.218.2h1.881a3.7,3.7,0,0,1,2.69,1.127A3.611,3.611,0,0,1,22.245,11.1a3.75,3.75,0,0,1-1.051,2.651,3.609,3.609,0,0,1-2.545,1.2c-.152,0-.235.07-.235.2v1.569c0,.128.083.2.235.2a5.485,5.485,0,0,0,2.8-.831,5.731,5.731,0,0,0,2.02-2.111,5.8,5.8,0,0,0,.736-2.871,5.576,5.576,0,0,0-.781-2.9,5.659,5.659,0,0,0-2.114-2.087A5.831,5.831,0,0,0,18.4,5.338h-.374A6.813,6.813,0,0,0,15.576,1.5a6.713,6.713,0,0,0-4.3-1.5A6.809,6.809,0,0,0,6.9,1.535,6.848,6.848,0,0,0,4.447,5.464,5.557,5.557,0,0,0,1.258,7.495,5.69,5.69,0,0,0,0,11.1Z" transform="translate(0.003 0.002)"/></g></svg>