<svg xmlns="http://www.w3.org/2000/svg" width="20.263" height="20.297" viewBox="0 0 20.263 20.297"><defs><style>.a{fill:#10103a;}.b{fill:#6bbce9;}</style></defs><g transform="translate(0 0)"><path class="a" d="M28.114,25.23a5.126,5.126,0,1,0,3.633,1.488A5.111,5.111,0,0,0,28.114,25.23Zm0,8.9a3.811,3.811,0,1,1,2.707-1.1A3.79,3.79,0,0,1,28.114,34.13Z" transform="translate(-18.025 -19.738)"/><path class="b" d="M0,43.669a.805.805,0,0,1,.239-.592.821.821,0,0,1,.572-.218H2.769a.72.72,0,0,1,.553.239.9.9,0,0,1,0,1.164.707.707,0,0,1-.553.237H.81a.784.784,0,0,1-.572-.237A.794.794,0,0,1,0,43.669Z" transform="translate(0.002 -33.53)"/><path class="b" d="M12.54,69.173a.9.9,0,0,1,.218-.583l1.406-1.376A.738.738,0,0,1,14.727,67a.805.805,0,0,1,.572.218.714.714,0,0,1,.229.544.905.905,0,0,1-.229.612l-1.354,1.363a.871.871,0,0,1-1.173,0A.777.777,0,0,1,12.54,69.173Z" transform="translate(-9.81 -52.413)"/><path class="b" d="M12.538,13.32a.89.89,0,0,1,.218-.581.914.914,0,0,1,.612-.239.805.805,0,0,1,.577.229l1.354,1.4a.744.744,0,0,1,.229.564.781.781,0,0,1-.8.8.744.744,0,0,1-.564-.229l-1.393-1.354A.8.8,0,0,1,12.538,13.32Z" transform="translate(-9.808 -9.779)"/><path class="b" d="M42.849,77.823a.751.751,0,0,1,.25-.575.845.845,0,0,1,1.156,0,.784.784,0,0,1,.229.575v1.9a.8.8,0,0,1-.239.592.773.773,0,0,1-.572.239.76.76,0,0,1-.572-.239.8.8,0,0,1-.239-.592Z" transform="translate(-33.522 -60.255)"/><path class="b" d="M42.85,2.768V.809A.777.777,0,0,1,43.1.247.792.792,0,0,1,43.673,0a.764.764,0,0,1,.572.239.779.779,0,0,1,.237.572V2.77a.723.723,0,0,1-.237.553.8.8,0,0,1-.572.218.831.831,0,0,1-.575-.218A.747.747,0,0,1,42.85,2.768Z" transform="translate(-33.523 0.001)"/><path class="b" d="M67.059,67.821a.714.714,0,0,1,.218-.535.7.7,0,0,1,.535-.218.816.816,0,0,1,.572.218l1.4,1.367a.827.827,0,0,1,.231.577.773.773,0,0,1-.229.564.851.851,0,0,1-1.147,0l-1.356-1.356A.938.938,0,0,1,67.059,67.821Z" transform="translate(-52.462 -52.469)"/><path class="b" d="M67.057,14.735a.751.751,0,0,1,.218-.564l1.358-1.4a.808.808,0,0,1,.564-.231.755.755,0,0,1,.572.239.777.777,0,0,1,.239.572.805.805,0,0,1-.229.594l-1.4,1.365a.836.836,0,0,1-.572.231.69.69,0,0,1-.535-.231A.812.812,0,0,1,67.057,14.735Z" transform="translate(-52.46 -9.809)"/><path class="b" d="M77,43.669a.858.858,0,0,1,.218-.592.744.744,0,0,1,.544-.218h1.929a.81.81,0,0,1,.575,1.382.773.773,0,0,1-.572.239H77.767a.7.7,0,0,1-.551-.239A.821.821,0,0,1,77,43.669Z" transform="translate(-60.238 -33.53)"/></g></svg>