<svg xmlns="http://www.w3.org/2000/svg" width="24.176" height="23.232" viewBox="0 0 24.176 23.232"><defs><style>.a{fill:#10103a;}.b{fill:#6bbce9;}</style></defs><g transform="translate(0 0)"><path class="a" d="M0,11.041a5.568,5.568,0,0,1,1.26-3.581A5.614,5.614,0,0,1,4.438,5.439,6.876,6.876,0,0,1,6.9,1.521,6.748,6.748,0,0,1,11.273,0a6.733,6.733,0,0,1,4.29,1.493,6.747,6.747,0,0,1,2.451,3.835h.372a5.777,5.777,0,0,1,2.893.766,5.685,5.685,0,0,1,2.891,4.956,5.759,5.759,0,0,1-2.751,4.937,5.5,5.5,0,0,1-2.8.829c-.152,0-.233-.07-.233-.2V15.064a.2.2,0,0,1,.233-.218,3.611,3.611,0,0,0,2.542-1.191,3.718,3.718,0,0,0,1.049-2.636,3.583,3.583,0,0,0-1.143-2.636,3.716,3.716,0,0,0-2.693-1.119H16.5c-.139,0-.218-.07-.218-.2l-.094-.677a4.758,4.758,0,0,0-1.606-3.152,4.821,4.821,0,0,0-3.33-1.271A4.789,4.789,0,0,0,7.925,3.238,4.688,4.688,0,0,0,6.341,6.4l-.083.618a.2.2,0,0,1-.233.218l-.618.035A3.9,3.9,0,0,0,2.958,8.516a3.561,3.561,0,0,0-.993,2.525,3.72,3.72,0,0,0,1.051,2.636,3.609,3.609,0,0,0,2.542,1.188c.128,0,.2.07.2.218v1.543a.178.178,0,0,1-.2.2A5.675,5.675,0,0,1,1.593,15.04,5.518,5.518,0,0,1,0,11.041Z" transform="translate(0.005 0.003)"/><path class="b" d="M36.155,57.185l-.831,1.186a.716.716,0,0,0,0,.838,1.165,1.165,0,0,0,1.406.307.772.772,0,0,0,.381-1.149l-.831-1.182a.081.081,0,0,0-.124,0Z" transform="translate(-27.528 -44.715)"/><path class="b" d="M67.051,57.3l-.831,1.186a.712.712,0,0,0,0,.838,1.162,1.162,0,0,0,1.4.311A.771.771,0,0,0,68,58.481L67.175,57.3a.081.081,0,0,0-.124,0Z" transform="translate(-51.698 -44.801)"/><path class="b" d="M51.771,63.675l-.831,1.186a.712.712,0,0,0,0,.838,1.162,1.162,0,0,0,1.4.311.771.771,0,0,0,.381-1.149L51.9,63.675a.081.081,0,0,0-.124,0Z" transform="translate(-39.744 -49.792)"/><path class="b" d="M35.442,78.377a.912.912,0,0,0,.309.455.964.964,0,0,0,.6.239c.187-.013.294-.017.316-.024a1.06,1.06,0,0,0,.385-.218.871.871,0,0,0,.294-.7l.037-3.985-.044-.3a.916.916,0,0,0-.3-.47.9.9,0,0,0-.592-.218,1.565,1.565,0,0,0-.3.041.977.977,0,0,0-.481.3.905.905,0,0,0-.218.592L35.42,78.11Z" transform="translate(-27.709 -57.235)"/><path class="b" d="M66.332,78.377a.927.927,0,0,0,.309.455.964.964,0,0,0,.6.239c.187-.013.294-.017.316-.024a1.056,1.056,0,0,0,.383-.218.871.871,0,0,0,.3-.7l.035-3.985c-.026-.2-.041-.3-.041-.3a.932.932,0,0,0-.3-.47.9.9,0,0,0-.592-.218,1.539,1.539,0,0,0-.3.041.969.969,0,0,0-.481.3.9.9,0,0,0-.218.592L66.31,78.11Z" transform="translate(-51.875 -57.235)"/><path class="b" d="M51.028,84.8a.927.927,0,0,0,.309.455.962.962,0,0,0,.6.237c.187-.013.294-.015.316-.022a1.066,1.066,0,0,0,.383-.218.871.871,0,0,0,.3-.694l.028-3.99c-.026-.194-.041-.3-.041-.3a.94.94,0,0,0-.3-.47.91.91,0,0,0-.592-.218,1.265,1.265,0,0,0-.3.041.964.964,0,0,0-.481.3.9.9,0,0,0-.218.592L51,84.53Z" transform="translate(-39.898 -62.258)"/></g></svg>