<svg xmlns="http://www.w3.org/2000/svg" width="24.21" height="25.145" viewBox="0 0 24.21 25.145"><defs><style>.a{fill:#6bbce9;}.b{fill:#10103a;}</style></defs><g transform="translate(0 0)"><path class="a" d="M43.463,56.384l-2.849,6.965a.3.3,0,0,0,.244.418l1.97.189a.3.3,0,0,1,.259.359L42,69.1h.176a.289.289,0,0,0,.244-.131l4.31-6.458a.294.294,0,0,0-.218-.457l-1.569-.163a.292.292,0,0,1-.233-.422l2.383-4.828a.292.292,0,0,0-.261-.435l-3.093-.02a.294.294,0,0,0-.274.194Z" transform="translate(-31.752 -43.959)"/><path class="b" d="M0,11.1a5.587,5.587,0,0,0,1.624,4.02,5.675,5.675,0,0,0,3.97,1.794.178.178,0,0,0,.2-.2V15.141a.178.178,0,0,0-.2-.2,3.594,3.594,0,0,1-2.547-1.2A3.75,3.75,0,0,1,1.994,11.1a3.657,3.657,0,0,1,.982-2.534,3.842,3.842,0,0,1,2.442-1.26l.618-.035c.152,0,.233-.07.233-.218l.07-.623a4.765,4.765,0,0,1,1.6-3.178A4.9,4.9,0,0,1,11.969,2.01a4.451,4.451,0,0,1,2.135.829,4.958,4.958,0,0,1,2.127,3.587l.091.681c0,.128.072.2.218.2h1.881a3.7,3.7,0,0,1,2.69,1.127A3.611,3.611,0,0,1,22.245,11.1a3.75,3.75,0,0,1-1.051,2.651,3.609,3.609,0,0,1-2.545,1.2c-.152,0-.235.07-.235.2v1.569c0,.128.083.2.235.2a5.485,5.485,0,0,0,2.8-.831,5.731,5.731,0,0,0,2.02-2.111,5.8,5.8,0,0,0,.736-2.871,5.576,5.576,0,0,0-.781-2.9,5.659,5.659,0,0,0-2.114-2.087A5.831,5.831,0,0,0,18.4,5.338h-.374A6.813,6.813,0,0,0,15.576,1.5a6.713,6.713,0,0,0-4.3-1.5A6.809,6.809,0,0,0,6.9,1.535,6.848,6.848,0,0,0,4.447,5.464,5.557,5.557,0,0,0,1.258,7.495,5.69,5.69,0,0,0,0,11.1Z" transform="translate(0.003 0.002)"/></g></svg>