<svg xmlns="http://www.w3.org/2000/svg" width="38.414" height="38.415" viewBox="0 0 38.414 38.415"><defs><style>.a{fill:#fff;}</style></defs><path class="a" d="M33.24,0H5.178A5.176,5.176,0,0,0,0,5.176V33.238a5.176,5.176,0,0,0,5.176,5.176h13.84l.024-13.727H15.475a.841.841,0,0,1-.841-.838l-.017-4.425a.842.842,0,0,1,.842-.845h3.56V14.3c0-4.962,3.03-7.663,7.456-7.663h3.632a.842.842,0,0,1,.842.842v3.731a.842.842,0,0,1-.841.842H27.878c-2.407,0-2.873,1.144-2.873,2.822v3.7h5.289a.841.841,0,0,1,.836.941l-.524,4.425a.842.842,0,0,1-.836.742H25.029l-.024,13.727H33.24a5.176,5.176,0,0,0,5.176-5.176V5.176A5.177,5.177,0,0,0,33.24,0Z" transform="translate(-0.002)"/></svg>