<svg xmlns="http://www.w3.org/2000/svg" width="37.485" height="37.485" viewBox="0 0 37.485 37.485"><defs><style>.a{fill:#fff;}</style></defs><path class="a" d="M8.308,150.8,7,155.669l-4.769.1a18.775,18.775,0,0,1-.138-17.5h0l4.246.778,1.86,4.22a11.186,11.186,0,0,0,.105,7.531Z" transform="translate(0 -128.145)"/><path class="a" d="M279.631,208.176a18.735,18.735,0,0,1-6.681,18.117h0l-5.348-.273-.757-4.725a11.171,11.171,0,0,0,4.806-5.7H261.628v-7.415h18Z" transform="translate(-242.473 -192.935)"/><path class="a" d="M58.751,320.114h0a18.749,18.749,0,0,1-28.243-5.734l6.074-4.972a11.147,11.147,0,0,0,16.063,5.707Z" transform="translate(-28.275 -286.756)"/><path class="a" d="M57.234,4.315,51.162,9.286a11.145,11.145,0,0,0-16.432,5.836l-6.106-5h0a18.746,18.746,0,0,1,28.61-5.808Z" transform="translate(-26.528)"/></svg>