<svg xmlns="http://www.w3.org/2000/svg" width="15.266" height="15.266" viewBox="0 0 15.266 15.266"><defs><style>.a{fill:#6bbce9;}</style></defs><path class="a" d="M9.892,12.792a.6.6,0,0,1-.009.843,5.768,5.768,0,0,1-4.069,1.631A5.8,5.8,0,0,1,1.7,13.58,5.731,5.731,0,0,1,0,9.482v-.16C0,7.308,1.683,5.376,3.169,3.672,4.176,2.516,5.218,1.32,5.218.6A.6.6,0,0,1,6.41.6c0,.77,1.057,1.972,2.078,3.134.186.211.378.43.568.65a.6.6,0,1,1-.9.779c-.186-.216-.377-.432-.561-.642A18.9,18.9,0,0,1,5.8,2.282,19.94,19.94,0,0,1,4.068,4.455C2.72,6,1.193,7.755,1.193,9.323v.16a4.643,4.643,0,0,0,7.856,3.3.6.6,0,0,1,.843.009Zm4.778-2.206a1.376,1.376,0,0,1-.856-.592,1.39,1.39,0,0,0-2.1,0,1.376,1.376,0,0,1-.856.592A1.376,1.376,0,0,1,10,9.994a1.39,1.39,0,0,0-2.1,0,1.376,1.376,0,0,1-.856.592,1.376,1.376,0,0,1-.856-.592,1.39,1.39,0,0,0-2.1,0,1.376,1.376,0,0,1-.856.592.6.6,0,1,0,0,1.193,2.376,2.376,0,0,0,1.771-1.02.2.2,0,0,1,.274,0,2.376,2.376,0,0,0,1.771,1.02,2.376,2.376,0,0,0,1.771-1.02.2.2,0,0,1,.274,0,2.376,2.376,0,0,0,1.771,1.02,2.376,2.376,0,0,0,1.771-1.02.2.2,0,0,1,.274,0,2.376,2.376,0,0,0,1.771,1.02.6.6,0,1,0,0-1.193ZM7.892,7.012a1.376,1.376,0,0,1-.856.592.6.6,0,1,0,0,1.193,2.376,2.376,0,0,0,1.771-1.02.2.2,0,0,1,.274,0A2.376,2.376,0,0,0,10.853,8.8a2.376,2.376,0,0,0,1.771-1.02.2.2,0,0,1,.274,0A2.376,2.376,0,0,0,14.669,8.8a.6.6,0,1,0,0-1.193,1.376,1.376,0,0,1-.856-.592,1.39,1.39,0,0,0-2.1,0,1.376,1.376,0,0,1-.856.592A1.376,1.376,0,0,1,10,7.012a1.39,1.39,0,0,0-2.1,0Zm0,0" transform="translate(0 -0.001)"/></svg>